<?xml version="1.0" encoding="utf-8"?>
<!-- Generator: Adobe Illustrator 16.0.0, SVG Export Plug-In . SVG Version: 6.00 Build 0)  -->
<!DOCTYPE svg PUBLIC "-//W3C//DTD SVG 1.1//EN" "http://www.w3.org/Graphics/SVG/1.1/DTD/svg11.dtd">
<svg version="1.1" id="Default" xmlns="http://www.w3.org/2000/svg" xmlns:xlink="http://www.w3.org/1999/xlink" x="0px" y="0px"
	 width="209px" height="233px" viewBox="0 0 209 233" enable-background="new 0 0 209 233" xml:space="preserve">
<polygon fill="#FFFFFF" points="106.2,107.25 172.52,107.25 139.36,49.81 134.42,41.26 96.33,107.25 86.45,124.35 76.58,141.45 
	71.65,150 68.82,154.89 49.08,154.89 61.77,132.9 66.71,124.35 61.77,115.8 8.87,24.16 114.68,24.16 104.81,41.26 38.48,41.26 
	71.65,98.7 76.58,107.25 134.42,7.06 144.3,24.16 149.23,32.71 202.14,124.35 96.33,124.35 "/>
<polygon fill="#E56384" points="68.82,154.89 38.48,207.44 28.61,224.54 8.87,224.54 18.74,207.44 28.61,190.34 38.48,173.24 
	49.08,154.89 "/>
</svg>
