<?xml version="1.0" encoding="utf-8"?>
<!-- Generator: Adobe Illustrator 16.0.0, SVG Export Plug-In . SVG Version: 6.00 Build 0)  -->
<!DOCTYPE svg PUBLIC "-//W3C//DTD SVG 1.1//EN" "http://www.w3.org/Graphics/SVG/1.1/DTD/svg11.dtd">
<svg version="1.1" id="Default" xmlns="http://www.w3.org/2000/svg" xmlns:xlink="http://www.w3.org/1999/xlink" x="0px" y="0px"
	 width="612px" height="58px" viewBox="0 0 612 58" enable-background="new 0 0 612 58" xml:space="preserve">
<path fill="#FFFFFF" d="M94.55,40.07c0,2.72-1,5-3.01,6.82c-2,1.82-4.68,2.74-8.05,2.74c-4.47,0-8.04-1.75-10.71-5.25
	c1.58-1.72,3.16-3.44,4.74-5.16c0.9,1.05,1.96,1.91,3.17,2.55c1.21,0.65,2.29,0.98,3.23,0.98c1.01,0,1.83-0.25,2.45-0.74
	c0.62-0.48,0.93-1.05,0.93-1.69c0-1.18-1.12-2.34-3.35-3.46c-0.87-0.44-1.73-0.87-2.6-1.3c-4.96-2.5-7.44-5.63-7.44-9.39
	c0-2.42,0.93-4.5,2.8-6.22c1.87-1.72,4.26-2.58,7.18-2.58c1.99,0,3.87,0.44,5.63,1.32c1.75,0.87,3.24,2.12,4.46,3.76
	c-1.58,1.59-3.17,3.17-4.76,4.76c-1.94-1.91-3.7-2.87-5.27-2.87c-0.87,0-1.55,0.18-2.04,0.55c-0.48,0.36-0.73,0.82-0.73,1.36
	c0,0.42,0.16,0.8,0.47,1.15c0.31,0.34,1.07,0.82,2.3,1.42c0.93,0.47,1.87,0.94,2.81,1.41c2.97,1.46,5.02,2.96,6.12,4.48
	C93.99,36.24,94.55,38.02,94.55,40.07z"/>
<path fill="#FFFFFF" d="M147.55,30.85v17.99h-7.75V33.27c0-3.47-0.44-5.83-1.3-7.06s-2.16-1.85-3.89-1.85
	c-1.31,0-2.5,0.38-3.54,1.13c-1.04,0.76-1.82,1.79-2.33,3.12c-0.5,1.32-0.76,3.45-0.76,6.38v13.85h-7.75V33.98
	c0-2.74-0.2-4.73-0.61-5.96c-0.4-1.24-1.01-2.15-1.81-2.75c-0.81-0.61-1.79-0.91-2.94-0.91c-1.27,0-2.44,0.39-3.48,1.15
	c-1.04,0.76-1.82,1.82-2.34,3.2c-0.51,1.37-0.77,3.53-0.77,6.48v13.65h-7.73V18.16h7.73v3.53c1.31-1.45,2.77-2.53,4.38-3.25
	c1.61-0.71,3.36-1.07,5.26-1.07c1.92,0,3.65,0.47,5.19,1.41c1.54,0.94,2.78,2.31,3.72,4.12c1.22-1.81,2.72-3.18,4.5-4.12
	c1.77-0.94,3.71-1.41,5.82-1.41c2.18,0,4.09,0.51,5.75,1.53c1.65,1.01,2.84,2.34,3.57,3.97C147.19,24.51,147.55,27.16,147.55,30.85z
	"/>
<path fill="#FFFFFF" d="M185.64,34.26c0-5.07-1.51-9.16-4.54-12.25c-3.02-3.09-6.95-4.64-11.78-4.64c-4.55,0-8.33,1.55-11.35,4.64
	c-3.02,3.09-4.53,6.98-4.53,11.66c0,4.57,1.52,8.37,4.54,11.4c3.03,3.04,6.95,4.56,11.76,4.56c3.1,0,5.78-0.55,8.03-1.65
	c2.26-1.1,4.2-2.8,5.81-5.09c-2.16-1.02-4.32-2.03-6.48-3.05c-2.07,2.01-4.54,3.02-7.42,3.02c-2.4,0-4.38-0.64-5.93-1.93
	s-2.51-3.02-2.86-5.2h24.72C185.62,35.24,185.63,34.75,185.64,34.26z M161.23,29.66c0.86-1.89,1.8-3.22,2.81-3.97
	c1.62-1.2,3.5-1.8,5.64-1.8c1.97,0,3.71,0.53,5.2,1.6c1.5,1.07,2.5,2.46,3.01,4.17H161.23z"/>
<path fill="#FFFFFF" d="M222.6,34.26c0-5.07-1.51-9.16-4.54-12.25c-3.02-3.09-6.95-4.64-11.78-4.64c-4.55,0-8.33,1.55-11.35,4.64
	c-3.02,3.09-4.53,6.98-4.53,11.66c0,4.57,1.52,8.37,4.54,11.4c3.03,3.04,6.95,4.56,11.76,4.56c3.1,0,5.78-0.55,8.04-1.65
	c2.25-1.1,4.19-2.8,5.8-5.09c-2.16-1.02-4.32-2.03-6.48-3.05c-2.07,2.01-4.54,3.02-7.42,3.02c-2.4,0-4.38-0.64-5.93-1.93
	s-2.51-3.02-2.86-5.2h24.72C222.58,35.24,222.59,34.75,222.6,34.26z M198.19,29.66c0.86-1.89,1.8-3.22,2.82-3.97
	c1.61-1.2,3.49-1.8,5.63-1.8c1.98,0,3.71,0.53,5.21,1.6c1.49,1.07,2.49,2.46,3,4.17H198.19z"/>
<path fill="#FFFFFF" d="M256.01,28.57v20.27h-7.61V35.39c0-3.67-0.17-6.1-0.49-7.3c-0.33-1.21-0.91-2.12-1.73-2.75
	c-0.81-0.63-1.82-0.95-3.03-0.95c-1.56,0-2.89,0.53-4.01,1.57c-1.12,1.04-1.9,2.48-2.33,4.33c-0.22,0.95-0.34,3.03-0.34,6.23v12.32
	h-7.67V18.16h7.67v3.13c1.75-1.46,3.33-2.48,4.75-3.06c1.42-0.57,2.87-0.86,4.36-0.86c3.04,0,5.63,1.06,7.75,3.19
	C255.12,22.36,256.01,25.03,256.01,28.57z"/>
<polygon fill="#FFFFFF" points="37.3,7.36 25.17,30.88 25.17,48.84 17.22,48.84 17.22,30.88 5.04,7.36 13.53,7.36 21.25,22.25 
	28.92,7.36 "/>
<path fill="#FFFFFF" d="M306.97,7.36h-8.01l-15.99,41.48h8.21l3.38-8.54h16.92l3.24,8.54h8.2L306.97,7.36z M297.49,32.6l5.53-14.24
	l5.5,14.24H297.49z"/>
<rect x="327.38" y="6.32" fill="#FFFFFF" width="7.69" height="42.52"/>
<path fill="#FFFFFF" d="M388.98,30.85v17.99h-7.75V33.27c0-3.47-0.43-5.83-1.3-7.06c-0.86-1.23-2.16-1.85-3.89-1.85
	c-1.31,0-2.49,0.38-3.54,1.13c-1.04,0.76-1.82,1.79-2.32,3.12c-0.51,1.32-0.77,3.45-0.77,6.38v13.85h-7.75V33.98
	c0-2.74-0.2-4.73-0.6-5.96c-0.41-1.24-1.01-2.15-1.82-2.75c-0.81-0.61-1.79-0.91-2.94-0.91c-1.27,0-2.43,0.39-3.48,1.15
	c-1.04,0.76-1.82,1.82-2.34,3.2c-0.51,1.37-0.77,3.53-0.77,6.48v13.65h-7.73V18.16h7.73v3.53c1.31-1.45,2.78-2.53,4.38-3.25
	c1.61-0.71,3.36-1.07,5.26-1.07c1.92,0,3.65,0.47,5.19,1.41c1.54,0.94,2.78,2.31,3.72,4.12c1.22-1.81,2.72-3.18,4.5-4.12
	c1.77-0.94,3.71-1.41,5.82-1.41c2.18,0,4.09,0.51,5.75,1.53c1.65,1.01,2.84,2.34,3.57,3.97C388.62,24.51,388.98,27.16,388.98,30.85z
	"/>
<path fill="#FFFFFF" d="M423.24,18.16v13c0,5.36-0.43,9.02-1.27,10.99c-1.03,2.41-2.56,4.26-4.57,5.55
	c-2.01,1.28-4.57,1.93-7.67,1.93c-3.36,0-6.08-0.75-8.16-2.26c-2.08-1.5-3.54-3.6-4.38-6.29c-0.61-1.86-0.91-5.24-0.91-10.15V18.16
	h7.79v14.78c0,2.87,0.19,4.87,0.59,5.99c0.39,1.11,1.03,1.98,1.9,2.6c0.87,0.62,1.95,0.94,3.23,0.94c1.28,0,2.36-0.31,3.25-0.92
	c0.9-0.61,1.56-1.51,1.99-2.69c0.32-0.89,0.48-2.77,0.48-5.67V18.16H423.24z"/>
<path fill="#FFFFFF" d="M458.17,28.57v20.27h-7.59V35.39c0-3.55-0.17-5.96-0.5-7.22c-0.34-1.26-0.92-2.2-1.74-2.82
	c-0.81-0.62-1.82-0.93-3.03-0.93c-1.56,0-2.9,0.52-4.02,1.55c-1.11,1.04-1.89,2.45-2.32,4.23c-0.23,0.92-0.34,3.03-0.34,6.32v12.32
	h-7.64V6.32h7.64v14.94c1.5-1.29,3.02-2.27,4.54-2.92c1.52-0.64,3.06-0.97,4.62-0.97c3.05,0,5.61,1.06,7.7,3.16
	C457.28,22.35,458.17,25.03,458.17,28.57z"/>
<path fill="#FFFFFF" d="M488.28,18.16v3.38c-1.37-1.38-2.87-2.43-4.48-3.12c-1.62-0.7-3.35-1.05-5.19-1.05
	c-4,0-7.41,1.52-10.21,4.54c-2.8,3.03-4.2,6.91-4.2,11.65c0,4.56,1.45,8.38,4.35,11.46c2.89,3.07,6.32,4.61,10.29,4.61
	c1.76,0,3.4-0.32,4.91-0.95c1.52-0.63,3.03-1.66,4.53-3.09v3.25h7.67V18.16H488.28z M486.25,40.06c-1.6,1.68-3.61,2.52-6.03,2.52
	c-2.35,0-4.33-0.86-5.94-2.57c-1.61-1.71-2.41-3.89-2.41-6.54c0-2.63,0.79-4.79,2.37-6.47c1.58-1.68,3.56-2.52,5.95-2.52
	c2.44,0,4.46,0.82,6.06,2.48c1.6,1.65,2.4,3.81,2.4,6.48C488.65,36.17,487.85,38.37,486.25,40.06z"/>
<path fill="#FFFFFF" d="M530.94,28.57v20.27h-7.62V35.39c0-3.67-0.16-6.1-0.49-7.3c-0.33-1.21-0.9-2.12-1.72-2.75
	c-0.82-0.63-1.83-0.95-3.03-0.95c-1.56,0-2.9,0.53-4.02,1.57s-1.89,2.48-2.32,4.33c-0.23,0.95-0.34,3.03-0.34,6.23v12.32h-7.67
	V18.16h7.67v3.13c1.75-1.46,3.33-2.48,4.75-3.06c1.42-0.57,2.87-0.86,4.35-0.86c3.05,0,5.63,1.06,7.76,3.19
	C530.04,22.36,530.94,25.03,530.94,28.57z"/>
<path fill="#FFFFFF" d="M565.58,28.57v20.27h-7.61V35.39c0-3.67-0.16-6.1-0.49-7.3c-0.33-1.21-0.9-2.12-1.72-2.75
	c-0.82-0.63-1.83-0.95-3.03-0.95c-1.56,0-2.9,0.53-4.02,1.57s-1.89,2.48-2.32,4.33c-0.23,0.95-0.34,3.03-0.34,6.23v12.32h-7.67
	V18.16h7.67v3.13c1.75-1.46,3.33-2.48,4.75-3.06c1.42-0.57,2.87-0.86,4.35-0.86c3.05,0,5.63,1.06,7.76,3.19
	C564.69,22.36,565.58,25.03,565.58,28.57z"/>
<path fill="#FFFFFF" d="M595.7,18.16v3.38c-1.37-1.38-2.87-2.43-4.49-3.12c-1.61-0.7-3.34-1.05-5.18-1.05
	c-4.01,0-7.41,1.52-10.21,4.54c-2.8,3.03-4.2,6.91-4.2,11.65c0,4.56,1.45,8.38,4.34,11.46c2.9,3.07,6.33,4.61,10.29,4.61
	c1.77,0,3.41-0.32,4.92-0.95c1.52-0.63,3.02-1.66,4.53-3.09v3.25h7.67V18.16H595.7z M593.67,40.06c-1.6,1.68-3.61,2.52-6.04,2.52
	c-2.35,0-4.32-0.86-5.93-2.57c-1.61-1.71-2.41-3.89-2.41-6.54c0-2.63,0.79-4.79,2.37-6.47s3.56-2.52,5.95-2.52
	c2.44,0,4.46,0.82,6.06,2.48c1.6,1.65,2.39,3.81,2.39,6.48C596.06,36.17,595.27,38.37,593.67,40.06z"/>
<path fill="#FFFFFF" d="M59.76,18.16v3.38c-1.38-1.38-2.87-2.43-4.49-3.12c-1.61-0.7-3.34-1.05-5.18-1.05
	c-4.01,0-7.41,1.52-10.21,4.54c-2.8,3.03-4.2,6.91-4.2,11.65c0,4.56,1.45,8.38,4.34,11.46c2.9,3.07,6.32,4.61,10.29,4.61
	c1.77,0,3.41-0.32,4.92-0.95c1.51-0.63,3.02-1.66,4.53-3.09v3.25h7.66V18.16H59.76z M57.73,40.06c-1.6,1.68-3.61,2.52-6.04,2.52
	c-2.35,0-4.33-0.86-5.93-2.57c-1.61-1.71-2.41-3.89-2.41-6.54c0-2.63,0.79-4.79,2.36-6.47c1.58-1.68,3.57-2.52,5.95-2.52
	c2.45,0,4.47,0.82,6.07,2.48c1.59,1.65,2.39,3.81,2.39,6.48C60.12,36.17,59.32,38.37,57.73,40.06z"/>
</svg>
